<svg xmlns="http://www.w3.org/2000/svg" width="58" height="58" fill="none"  stroke="#FF913A" viewBox="0 0 58 58">
  <g>
    <path stroke-linecap="round" stroke-linejoin="round" stroke-width="2" d="m7.032 52.563-2.03-3.626 2.03-3.624h4.06l2.03 3.624-2.03 3.626h-4.06Z"/>
    <path  stroke-linecap="round" stroke-linejoin="round" stroke-width="2" d="m56.623 8.627-4.967 4.967-5.437-1.813-1.813-5.437 4.967-4.967a10.875 10.875 0 0 0-13.558 13.558L9.878 40.872a7.982 7.982 0 0 0-.816 0 8.156 8.156 0 1 0 8.157 8.066 7.981 7.981 0 0 0 0-.816l25.919-25.919A10.874 10.874 0 0 0 56.623 8.628ZM13.594 44.406l3.625-3.625m3.625-3.625 3.625-3.625m3.625-3.625 3.625-3.625m3.625-3.625 3.625-3.625"/>
    <path  stroke-linecap="round" stroke-linejoin="round" stroke-width="2" d="M57.094 49.409a7.685 7.685 0 0 0-2.248-5.438L38.063 27.188 27.187 38.063l16.784 16.783a7.685 7.685 0 0 0 5.438 2.248 7.685 7.685 0 0 0 7.685-7.685Zm-43.5-39.44-.906.906-2.72-2.719-1.812-3.625L2.72.906.906 2.72l3.625 5.437L8.156 9.97l2.719 2.719-.906.906 13.594 13.594 3.625-3.625L13.594 9.969Zm19.937 27.187L46.22 49.844m-9.064-16.313L49.844 46.22"/>
  </g>

</svg>