<svg xmlns="http://www.w3.org/2000/svg" width="72" height="70" fill="none" stroke="#FF913A" viewBox="0 0 72 70">
  <path  stroke-linecap="round" stroke-linejoin="round" stroke-miterlimit="10" stroke-width="2.5" d="M46.983 7.476V5.943a3.412 3.412 0 0 1 3.395-3.395h3.943a3.412 3.412 0 0 1 3.395 3.395V18.1m.548 6.9L36.578 3.314c-1.752-1.752-4.49-1.752-6.242 0L6.24 27.41v33.514h50.6m3.833-14.129V45.37"/>
  <path  stroke-linecap="round" stroke-linejoin="round" stroke-miterlimit="10" stroke-width="2.5" d="m2.079 31.571 4.162-4.162L30.336 3.314c1.752-1.752 4.49-1.752 6.242 0L58.264 25M34.826 37.814c-.767-.876-1.862-1.315-3.067-1.315H19.602c-2.41 0-4.27 1.972-4.27 4.272v20.152H36.03v-2.41"/>
  <path  stroke-linecap="round" stroke-linejoin="round" stroke-miterlimit="10" stroke-width="2.5" d="m40.083 43.29-1.862.767c-2.957 1.204-4.271 4.6-3.067 7.557 1.205 2.957 4.6 4.271 7.557 3.066l10.515-4.38c3.176-1.315 6.79.109 8.104 3.285l.986 2.52"/>
  <path  stroke-linecap="round" stroke-linejoin="round" stroke-miterlimit="10" stroke-width="2.5" d="m67.792 28.942 1.972 4.6c.657 1.534-.11 3.286-1.643 3.943l-23.11 9.748c-1.533.657-3.285-.11-3.942-1.643l-1.972-4.6c-.657-1.533.11-3.286 1.643-3.943L63.85 27.3c1.533-.548 3.285.11 3.942 1.642Zm-2.519 27.491 3.833 9.2c.329.766 0 1.642-.766 1.97l-1.972.877c-.766.329-1.642 0-1.971-.767l-3.833-9.2c-.329-.766 0-1.642.766-1.97l1.972-.877c.766-.329 1.643 0 1.971.767ZM38.111 29.49h-9.309a2.197 2.197 0 0 1-2.19-2.19v-9.31c0-1.204.985-2.19 2.19-2.19h9.31c1.204 0 2.19.985 2.19 2.19v9.31c0 1.204-.986 2.19-2.19 2.19ZM19.164 47.452v2.08"/>
</svg>
