<svg xmlns="http://www.w3.org/2000/svg" width="110" height="110" fill="none" viewBox="0 0 110 110">
  <path fill="#FF913A" d="M31.243 84.78H9.115a1.1 1.1 0 0 1 0-2.2h21.028v-6.76H27.46a1.1 1.1 0 0 1 0-2.2h3.784a1.1 1.1 0 0 1 1.1 1.1v8.96a1.1 1.1 0 0 1-1.1 1.1Zm28.6-48.4h-2.961a1.1 1.1 0 0 1 0-2.2h1.861v-6.89a1.1 1.1 0 0 1 .518-2.07h.582a1.1 1.1 0 0 1 1.1 1.1v8.96c0 .607-.491 1.098-1.1 1.098Zm28.6 0H63.015a1.1 1.1 0 0 1-1.1-1.1v-8.96a1.1 1.1 0 0 1 1.1-1.1h25.428a1.1 1.1 0 0 1 1.1 1.1v8.96c0 .608-.491 1.1-1.1 1.1Zm-24.328-2.2h23.228v-6.76H64.115v6.76Zm35.75 50.6h-8.379a1.1 1.1 0 0 1-1.1-1.1v-8.96a1.1 1.1 0 0 1 1.1-1.1h7.279V36.38h-7.279a1.1 1.1 0 0 1-1.1-1.1v-8.96a1.1 1.1 0 0 1 1.1-1.1h8.379a1.1 1.1 0 0 1 1.1 1.1v57.36a1.1 1.1 0 0 1-1.1 1.1Zm-7.279-2.2h6.179v-6.76h-6.179v6.76Zm0-48.4h6.179v-6.76h-6.179v6.76Zm-32.743 26.4H35.665a1.1 1.1 0 0 1 0-2.2h23.078v-6.76H37.59a1.1 1.1 0 0 1 0-2.2h22.253a1.1 1.1 0 0 1 1.1 1.1v8.96c0 .608-.491 1.1-1.1 1.1Zm28.6 0H63.015a1.1 1.1 0 0 1-1.1-1.1v-8.96a1.1 1.1 0 0 1 1.1-1.1h25.428a1.1 1.1 0 0 1 1.1 1.1v8.96c0 .608-.491 1.1-1.1 1.1Zm-24.328-2.2h23.228v-6.76H64.115v6.76Z"/>
  <path fill="#FF913A" d="M99.865 60.58h-8.379a1.1 1.1 0 0 1-1.1-1.1v-8.96a1.1 1.1 0 0 1 1.1-1.1h8.379a1.1 1.1 0 0 1 0 2.2h-7.279v6.76h7.279a1.1 1.1 0 0 1 0 2.2Zm-47.722 12.1H30.275a1.1 1.1 0 0 1 0-2.2h20.768v-6.76H34.807a1.1 1.1 0 0 1 0-2.2h17.337a1.1 1.1 0 0 1 1.1 1.1v8.96a1.1 1.1 0 0 1-1.1 1.1Zm28.6 0H55.315a1.1 1.1 0 0 1-1.1-1.1v-8.96a1.1 1.1 0 0 1 1.1-1.1h25.428a1.1 1.1 0 0 1 1.1 1.1v8.96c0 .608-.491 1.1-1.1 1.1Zm-24.328-2.2h23.228v-6.76H56.415v6.76Zm43.448 2.2H83.786a1.1 1.1 0 0 1-1.1-1.1v-8.96a1.1 1.1 0 0 1 1.1-1.1h16.077a1.1 1.1 0 0 1 0 2.2H84.886v6.76h14.977a1.1 1.1 0 0 1 0 2.2Zm-40.02 12.1H34.415a1.1 1.1 0 0 1-1.1-1.1v-8.96a1.1 1.1 0 0 1 1.1-1.1h25.428a1.1 1.1 0 0 1 1.1 1.1v8.96a1.1 1.1 0 0 1-1.1 1.1Zm-24.328-2.2h23.228v-6.76H35.515v6.76Zm52.928 2.2H63.015a1.1 1.1 0 0 1-1.1-1.1v-8.96a1.1 1.1 0 0 1 1.1-1.1h25.428a1.1 1.1 0 0 1 1.1 1.1v8.96a1.1 1.1 0 0 1-1.1 1.1Zm-24.328-2.2h23.228v-6.76H64.115v6.76Zm2.328-34.1H41.015a1.1 1.1 0 0 1 0-2.2h24.328v-6.76h-9.427a1.1 1.1 0 0 1 0-2.2h10.527a1.1 1.1 0 0 1 1.1 1.1v8.96a1.1 1.1 0 0 1-1.1 1.1Zm28.6 0H69.615a1.1 1.1 0 0 1-1.1-1.1v-8.96a1.1 1.1 0 0 1 1.1-1.1h25.428a1.1 1.1 0 0 1 1.1 1.1v8.96a1.1 1.1 0 0 1-1.1 1.1Zm-24.328-2.2h23.228v-6.76H70.715v6.76Z"/>
  <path fill="#FF913A" d="M9.115 84.78a1.1 1.1 0 0 1-1.1-1.1V26.32a1.1 1.1 0 0 1 1.1-1.1h49.84a2.281 2.281 0 0 1 1.218.098 1.1 1.1 0 0 1-.453 2.103h-.366c-.26.211-1.09 1.193-1.375 5.248-.447 6.369-.751 6.773-8.135 10.806a316.828 316.828 0 0 0-5.141 2.857c-6.816 3.88-6.97 5.42-7.345 9.143-.266 2.654-.632 6.29-3.364 12.095-6.771 14.39-23.988 17.09-24.719 17.198a1.115 1.115 0 0 1-.16.011Zm1.1-57.36v54.92c4.016-.904 16.54-4.553 21.79-15.709 2.57-5.462 2.9-8.742 3.164-11.377.446-4.433.958-6.572 8.445-10.835a307.922 307.922 0 0 1 5.175-2.874c6.615-3.615 6.615-3.615 6.995-9.03.154-2.197.482-3.89.988-5.094H10.215Z"/>
</svg>
