<svg xmlns="http://www.w3.org/2000/svg" fill="#FF913A" width="74" height="74" fill="none" viewBox="0 0 74 74">
  <path  d="M69.375 55.311a9.502 9.502 0 0 0-2.8-6.759L57.824 39.8a9.498 9.498 0 0 0-6.762-2.8 9.493 9.493 0 0 0-6.759 2.8l-.616.617-2.74-2.74a2.312 2.312 0 1 0-3.27 3.27l27.75 27.75a2.305 2.305 0 0 0 1.635.678 2.312 2.312 0 0 0 1.635-3.948l-2.739-2.739.617-.616a9.502 9.502 0 0 0 2.8-6.76ZM46.957 43.687l.616-.617c1.866-1.865 5.115-1.863 6.98 0l8.752 8.752a4.94 4.94 0 0 1 0 6.98l-.617.616-15.731-15.731Z"/>
  <path  d="M67.063 4.625H6.937a2.312 2.312 0 0 0-2.312 2.313v60.124a2.312 2.312 0 0 0 2.313 2.313h50.874c1.279 0 2.04-.627 2.04-1.904 0-1.278-.761-1.633-2.04-1.633h-19.18V46.25c0-1.277-.354-2.313-1.632-2.313s-1.632 1.036-1.632 2.313v19.588H8.162V38.632h24.213c1.278 0 2.313-.355 2.313-1.632s-1.035-1.632-2.313-1.632H8.162V8.162h27.206v24.213c0 1.277.354 2.313 1.632 2.313s1.632-1.036 1.632-2.313V8.162h27.206v27.206h-5.713c-1.278 0-2.313.355-2.313 1.632s1.035 1.632 2.313 1.632h5.713v5.306c0 1.277.354 2.312 1.633 2.312 1.278 0 1.904-1.035 1.904-2.313v-37a2.312 2.312 0 0 0-2.313-2.312Z"/>
</svg>
