<svg xmlns="http://www.w3.org/2000/svg" width="136" height="30" fill="none" viewBox="0 0 136 30">
  <path fill="#000" d="M1.264 24V9.455h9.63v2.535H4.34v3.466h5.917v2.535H4.339V24H1.264ZM16.04 9.455V24h-3.076V9.455h3.076ZM18.569 24V9.455h5.739c1.098 0 2.035.196 2.812.589.781.388 1.375.94 1.783 1.655.412.71.618 1.546.618 2.507 0 .966-.209 1.797-.625 2.493-.417.691-1.02 1.221-1.812 1.59-.785.37-1.737.555-2.855.555h-3.842v-2.472h3.345c.587 0 1.075-.08 1.463-.241.389-.161.677-.403.867-.725.194-.322.291-.722.291-1.2 0-.483-.097-.89-.291-1.222-.19-.331-.48-.582-.874-.752-.388-.176-.878-.263-1.47-.263h-2.074V24H18.57Zm7.855-6.62L30.039 24h-3.395l-3.537-6.62h3.317Zm13.16-3.742c-.056-.573-.3-1.018-.731-1.335-.43-.318-1.016-.476-1.754-.476-.502 0-.926.07-1.272.213-.345.137-.61.329-.795.575-.18.246-.27.526-.27.838-.01.26.045.488.163.682.123.194.292.362.505.504.213.138.459.258.738.362.28.1.578.185.895.256l1.307.313a9.21 9.21 0 0 1 1.747.568c.53.236.99.528 1.378.873.388.346.689.753.902 1.222.218.469.33 1.006.334 1.612-.005.89-.232 1.662-.682 2.316-.445.648-1.089 1.152-1.932 1.512-.838.355-1.849.533-3.032.533-1.175 0-2.197-.18-3.069-.54-.866-.36-1.543-.892-2.03-1.598-.484-.71-.737-1.588-.76-2.635H34.2c.033.488.173.895.419 1.222.251.322.585.566 1.001.731.422.161.898.242 1.428.242.52 0 .973-.076 1.357-.227.388-.152.688-.363.901-.633.214-.27.32-.58.32-.93a1.21 1.21 0 0 0-.291-.824c-.19-.222-.469-.412-.838-.568a8.525 8.525 0 0 0-1.342-.426l-1.584-.398c-1.227-.298-2.195-.764-2.905-1.399-.71-.634-1.063-1.49-1.058-2.564-.005-.88.23-1.65.703-2.308.478-.658 1.134-1.172 1.967-1.541.833-.37 1.78-.554 2.841-.554 1.08 0 2.022.184 2.827.554.81.369 1.44.883 1.889 1.54.45.659.682 1.421.696 2.288h-2.947Zm4.661-1.648V9.455h11.946v2.535h-4.453V24h-3.04V11.99h-4.453Z"/>
  <g>
    <path fill="#FF8524" d="M58.199 20.804v-3.027l7.59-11.959h2.61v4.19h-1.545l-4.785 7.573v.142h10.787v3.081H58.199ZM66.925 24v-4.12l.071-1.34V5.818h3.605V24h-3.676Z"/>
  </g>
  <path fill="#000" d="M76.264 9.455h3.793l4.005 9.772h.171l4.006-9.772h3.792V24h-2.983v-9.467h-.12l-3.765 9.396h-2.03l-3.765-9.432h-.12V24h-2.984V9.455Zm31.667 7.272c0 1.586-.3 2.936-.902 4.049-.596 1.112-1.411 1.962-2.443 2.55-1.027.582-2.182.873-3.466.873-1.292 0-2.452-.294-3.48-.88-1.027-.588-1.84-1.438-2.436-2.55-.596-1.113-.895-2.46-.895-4.042 0-1.586.299-2.935.895-4.048.597-1.113 1.409-1.96 2.436-2.543 1.028-.587 2.188-.88 3.48-.88 1.284 0 2.439.293 3.466.88 1.032.583 1.847 1.43 2.443 2.543.602 1.113.902 2.462.902 4.048Zm-3.117 0c0-1.027-.154-1.894-.462-2.6-.303-.705-.732-1.24-1.286-1.604-.554-.365-1.202-.547-1.946-.547-.743 0-1.392.182-1.946.547-.554.364-.985.9-1.292 1.605-.303.705-.455 1.572-.455 2.6 0 1.027.152 1.893.455 2.599.307.705.738 1.24 1.292 1.605.554.364 1.203.547 1.946.547.744 0 1.392-.183 1.946-.547.554-.365.983-.9 1.286-1.605.308-.706.462-1.572.462-2.6Zm7.203-7.272 3.516 11.05h.135l3.522-11.05h3.409L117.585 24h-3.963l-5.021-14.545h3.416ZM124.35 24V9.455h9.801v2.535h-6.726v3.466h6.222v2.535h-6.222v3.474h6.755V24h-9.83Z"/>
  <defs>
    <filter id="a" width="14.657" height="22.182" x="58.199" y="5.818" color-interpolation-filters="sRGB" filterUnits="userSpaceOnUse">
      <feFlood flood-opacity="0" result="BackgroundImageFix"/>
      <feBlend in="SourceGraphic" in2="BackgroundImageFix" result="shape"/>
      <feColorMatrix in="SourceAlpha" result="hardAlpha" values="0 0 0 0 0 0 0 0 0 0 0 0 0 0 0 0 0 0 127 0"/>
      <feOffset dy="4"/>
      <feGaussianBlur stdDeviation="2"/>
      <feComposite in2="hardAlpha" k2="-1" k3="1" operator="arithmetic"/>
      <feColorMatrix values="0 0 0 0 0 0 0 0 0 0 0 0 0 0 0 0 0 0 0.25 0"/>
      <feBlend in2="shape" result="effect1_innerShadow_108_128"/>
    </filter>
  </defs>
</svg>
