<svg xmlns="http://www.w3.org/2000/svg" width="78" height="78" fill="none" viewBox="0 0 78 78">
  <circle cx="39" cy="39" r="37.5" stroke="#FF913A" stroke-width="3"/>
  <path stroke="#FF913A" stroke-miterlimit="10" stroke-width="3" d="M38.666 62.333c1.388 0 2.445-.868 3.219-1.91 3.351-4.506 9.009-13.906 10.76-18.79.857-2.388 1.605-5.001 1.605-7.716 0-8.607-6.977-15.584-15.584-15.584-8.606 0-15.583 6.977-15.583 15.584 0 2.715.748 5.328 1.604 7.715 1.752 4.885 7.41 14.285 10.76 18.792.775 1.041 1.831 1.91 3.22 1.91Z"/>
  <path stroke="#FF913A" stroke-miterlimit="10" stroke-width="3" d="M39.125 52.25c.857 0 1.51-.543 1.988-1.193 2.07-2.817 5.564-8.692 6.646-11.745.529-1.492.991-3.125.991-4.822 0-5.38-4.31-9.74-9.625-9.74-5.316 0-9.625 4.36-9.625 9.74 0 1.697.462 3.33.99 4.822 1.083 3.053 4.577 8.928 6.647 11.745.478.65 1.13 1.193 1.988 1.193Z"/>
</svg>
