<svg xmlns="http://www.w3.org/2000/svg" width="77" height="77" fill="none" viewBox="0 0 77 77">
  <circle cx="38.5" cy="38.5" r="37" stroke="#FF913A" stroke-width="3"/>
  <path fill="#FF913A" d="M47.013 57.314a18.231 18.231 0 0 1-4.26-.537c-4.813-1.161-9.769-4.107-13.953-8.295-4.184-4.187-7.134-9.145-8.295-13.953-1.223-5.058-.35-9.385 2.453-12.189l.8-.8a3.874 3.874 0 0 1 5.473 0l4.6 4.599a3.872 3.872 0 0 1 0 5.473l-2.717 2.716c1.303 2.286 3.074 4.573 5.168 6.667 2.094 2.094 4.384 3.867 6.669 5.17l2.716-2.718a3.868 3.868 0 0 1 5.473 0l4.599 4.6a3.87 3.87 0 0 1 0 5.471l-.802.8c-1.976 1.98-4.712 2.996-7.924 2.996ZM26.495 23.16a1.1 1.1 0 0 0-.789.327l-.8.8c-2.1 2.1-2.713 5.508-1.728 9.592 1.044 4.327 3.731 8.822 7.565 12.655 3.835 3.834 8.33 6.518 12.656 7.565 4.085.986 7.492.373 9.591-1.726l.8-.8a1.116 1.116 0 0 0 0-1.579l-4.597-4.599a1.116 1.116 0 0 0-1.578 0L44.17 48.84a1.376 1.376 0 0 1-1.606.25c-2.823-1.46-5.668-3.585-8.23-6.147-2.56-2.56-4.681-5.405-6.145-8.227a1.377 1.377 0 0 1 .25-1.607l3.444-3.443a1.116 1.116 0 0 0 0-1.578l-4.6-4.6a1.108 1.108 0 0 0-.789-.327Z"/>
  <path fill="#FF913A" d="M48.483 40.76a1.377 1.377 0 0 1-1.377-1.377 9.122 9.122 0 0 0-9.11-9.111 1.377 1.377 0 0 1 0-2.754c6.541 0 11.864 5.324 11.864 11.865a1.377 1.377 0 0 1-1.377 1.377Z"/>
  <path fill="#FF913A" d="M54.303 40.76a1.377 1.377 0 0 1-1.377-1.377c0-8.233-6.701-14.931-14.93-14.931a1.377 1.377 0 0 1 0-2.754c9.75 0 17.684 7.934 17.684 17.685a1.377 1.377 0 0 1-1.377 1.377Z"/>
</svg>
