<svg xmlns="http://www.w3.org/2000/svg" width="27" height="27" fill="none" viewBox="0 0 27 27">
  <g clip-path="url(#a)">
    <path fill="#3B5998" d="M27 25.313c0 .931-.756 1.687-1.688 1.687H1.688A1.688 1.688 0 0 1 0 25.312V1.688C0 .756.756 0 1.688 0h23.625C26.244 0 27 .756 27 1.688v23.625Z"/>
    <path fill="#fff" d="M18.563 27V16.875h3.375l.843-4.219h-4.218V10.97c0-1.688.845-2.531 2.53-2.531h1.688v-4.22h-3.375c-3.1 0-5.062 2.432-5.062 5.907v2.531h-3.375v4.219h3.375V27h4.219Z"/>
  </g>
  <defs>
    <clipPath id="a">
      <path fill="#fff" d="M0 0h27v27H0z"/>
    </clipPath>
  </defs>
</svg>
