<svg xmlns="http://www.w3.org/2000/svg" width="27" height="27" fill="none" viewBox="0 0 27 27">
  <path fill="#4A4A4A" d="m5.789 9.169.623-.624 5.775 5.775a1.902 1.902 0 0 0 2.658 0l5.775-5.742.624.624-4.299 4.298 4.299 4.299-.624.623-4.298-4.299-.853.854a2.735 2.735 0 0 1-1.936.82 2.735 2.735 0 0 1-1.936-.82l-.853-.854-4.299 4.299-.623-.623L10.12 13.5 5.79 9.169Z"/>
  <path fill="#4A4A4A" d="M7.003 19.538h12.961c.755 0 1.378-.624 1.378-1.379V8.906c0-.754-.623-1.378-1.378-1.378H7.004c-.755 0-1.379.624-1.379 1.378v9.253c0 .755.624 1.379 1.378 1.379ZM19.997 8.414a.45.45 0 0 1 .46.46v9.253a.45.45 0 0 1-.46.459H7.036a.449.449 0 0 1-.46-.46V8.874a.45.45 0 0 1 .46-.459h12.961Z"/>
  <circle cx="13.5" cy="13.5" r="13" stroke="#4A4A4A"/>
</svg>
