<svg xmlns="http://www.w3.org/2000/svg" width="27" height="27" fill="none" viewBox="0 0 27 27">
  <path stroke="#4A4A4A" stroke-miterlimit="10" d="M15.13 17.131s1.266-.82 1.597-1.018c.33-.198.672-.248.88-.104.315.218 2.957 2.21 3.18 2.386.223.177.33.682.024 1.176-.305.495-1.71 2.45-2.306 2.429-.597-.022-3.077-.084-7.754-5.386-4.676-5.3-4.732-8.112-4.75-8.789-.02-.675 1.705-2.269 2.141-2.614.437-.346.883-.216 1.038.027.176.277 1.914 3.262 2.105 3.604.131.234.083.624-.092.999-.173.375-.898 1.81-.898 1.81s.51.986 2.238 2.943c1.727 1.957 2.597 2.537 2.597 2.537Z"/>
  <circle cx="13.5" cy="13.5" r="13" stroke="#4A4A4A"/>
</svg>
